<?xml version="1.0" standalone="no"?>
<!DOCTYPE svg PUBLIC "-//W3C//DTD SVG 20010904//EN"
 "http://www.w3.org/TR/2001/REC-SVG-20010904/DTD/svg10.dtd">
<svg version="1.0" xmlns="http://www.w3.org/2000/svg"
 width="540.000000pt" height="540.000000pt" viewBox="0 0 540.000000 540.000000"
 preserveAspectRatio="xMidYMid meet">

<g transform="translate(0.000000,540.000000) scale(0.100000,-0.100000)"
fill="#000000" stroke="none">
<path d="M1146 5288 c3 -5 0 -15 -6 -23 -10 -12 -9 -15 3 -15 9 0 19 5 22 10
13 21 35 10 36 -17 0 -25 1 -25 8 -8 9 22 -4 45 -25 45 -8 0 -14 4 -14 8 0 5
-7 9 -15 9 -8 0 -12 -4 -9 -9z"/>
<path d="M1290 5157 c0 -3 11 -12 24 -20 21 -14 25 -15 30 -1 3 8 1 12 -4 9
-5 -3 -19 -1 -30 5 -11 6 -20 9 -20 7z"/>
<path d="M1354 5118 c-4 -6 -3 -8 2 -5 6 3 16 2 24 -4 11 -6 12 -9 2 -9 -18 0
-6 -17 21 -32 20 -10 21 -10 8 5 -7 10 -10 17 -6 17 5 0 0 9 -10 20 -21 23
-31 25 -41 8z"/>
<path d="M1439 5047 c22 -28 173 -143 199 -151 12 -4 22 -13 22 -19 1 -7 40
-41 87 -77 48 -36 144 -110 213 -165 244 -193 451 -350 482 -367 17 -9 38 -24
46 -32 17 -16 8 -38 -13 -30 -7 3 -18 -4 -24 -15 -10 -17 -9 -20 4 -15 8 4 15
1 15 -5 0 -6 -7 -11 -15 -11 -8 0 -15 -4 -15 -10 0 -5 -6 -10 -13 -10 -17 0
-59 -44 -50 -53 3 -4 1 -7 -6 -7 -7 0 -10 -4 -7 -9 3 -4 -3 -16 -14 -26 -11
-10 -17 -22 -14 -26 3 -5 1 -9 -4 -9 -15 0 -23 -42 -11 -56 6 -7 8 -22 4 -34
-4 -14 -1 -22 11 -27 10 -4 19 -2 22 5 2 7 16 12 32 12 16 0 31 6 33 13 4 9 8
8 16 -3 9 -12 11 -12 17 3 3 9 1 23 -5 31 -17 20 20 49 53 40 31 -7 47 -27 20
-24 -35 4 -44 0 -44 -18 0 -10 9 -24 20 -32 26 -19 26 -40 -1 -40 -16 0 -20
-5 -18 -28 2 -15 0 -33 -4 -40 -5 -6 -5 -16 -2 -22 3 -5 3 -16 -2 -22 -13 -21
-32 -119 -32 -168 l0 -45 24 30 c34 41 50 92 35 109 -8 11 -8 16 0 21 12 7 39
-22 40 -42 0 -22 -23 -63 -37 -63 -7 0 -13 -11 -13 -24 0 -13 -8 -34 -18 -47
-29 -38 -34 -59 -14 -59 16 -1 15 -2 -1 -14 -15 -12 -16 -18 -8 -35 6 -11 11
-30 10 -43 -1 -22 -2 -20 -15 22 -5 13 -6 13 -14 0 -13 -21 -12 -33 2 -24 7 5
9 2 6 -8 -4 -8 -2 -21 2 -29 5 -8 5 -16 -1 -20 -5 -3 -7 -13 -3 -22 4 -13 10
-14 24 -7 13 7 21 5 30 -5 7 -8 9 -15 5 -15 -4 0 -3 -6 4 -13 13 -16 6 -57
-11 -69 -7 -4 -8 -8 -3 -8 6 0 17 6 24 13 11 10 13 9 8 -6 -6 -15 -4 -16 13
-7 11 6 20 9 20 8 0 -2 -7 -24 -15 -50 -15 -52 -8 -62 19 -25 l17 22 -6 -27
c-4 -21 -2 -28 10 -28 9 0 13 -4 10 -10 -3 -5 0 -7 8 -4 11 4 13 -11 12 -76
-2 -51 1 -80 8 -80 6 0 4 -6 -5 -12 -9 -7 -19 -33 -22 -58 -4 -32 -3 -39 3
-25 9 19 10 19 10 -2 1 -13 -4 -23 -10 -23 -5 0 -7 -5 -4 -10 9 -14 -14 -151
-28 -169 -18 -21 -36 -82 -30 -98 4 -9 14 -12 28 -9 35 9 43 -11 35 -85 -4
-36 -6 -81 -4 -100 4 -49 -17 -199 -27 -193 -5 3 -9 -4 -9 -15 0 -12 6 -21 14
-21 21 0 8 -38 -15 -45 -22 -7 -25 -21 -6 -28 19 -7 19 -68 2 -118 -18 -51
-18 -50 -1 -43 12 5 22 -14 32 -66 2 -8 -6 -32 -16 -53 -11 -21 -20 -46 -20
-57 0 -10 -5 -22 -10 -25 -6 -4 -8 -11 -5 -16 4 -5 1 -9 -4 -9 -6 0 -11 -6
-11 -14 0 -8 -5 -16 -11 -18 -6 -2 -13 -28 -15 -58 -6 -89 -9 -98 -45 -177
-10 -24 -24 -43 -29 -43 -6 0 -16 -13 -21 -30 -6 -16 -19 -32 -30 -35 -10 -4
-19 -14 -20 -23 0 -10 -3 -12 -5 -5 -4 8 -12 5 -25 -8 -11 -11 -17 -24 -14
-29 3 -5 0 -12 -6 -16 -8 -4 -9 -3 -5 4 12 19 -2 14 -26 -10 -16 -16 -17 -20
-5 -15 9 3 17 2 17 -3 0 -6 -7 -10 -15 -10 -8 0 -37 -23 -64 -50 -51 -51 -68
-61 -57 -35 4 10 -1 15 -16 15 -17 0 -18 -3 -8 -15 10 -12 7 -20 -18 -45 -17
-16 -25 -30 -17 -30 14 0 99 64 129 99 11 11 24 21 29 21 6 0 3 -8 -6 -18 -26
-28 -20 -36 9 -13 15 12 31 21 36 21 23 0 148 106 148 125 0 6 7 20 16 31 15
18 15 18 11 -8 -2 -16 0 -28 5 -28 5 0 8 -19 8 -42 -2 -68 11 -382 16 -387 2
-2 -1 -10 -7 -18 -6 -7 -8 -13 -4 -13 4 0 2 -6 -4 -14 -6 -8 -10 -43 -9 -82 3
-114 -4 -224 -15 -224 -5 0 -7 -13 -4 -29 9 -43 -2 -73 -23 -66 -10 3 -48 1
-85 -6 -61 -10 -67 -10 -80 7 -13 18 -14 17 -15 -12 0 -32 -24 -53 -34 -31 -3
7 -3 2 0 -11 4 -16 0 -24 -13 -28 -10 -3 -26 -10 -35 -15 -23 -12 -24 -12 -44
8 -16 16 -17 16 -12 -15 3 -18 1 -35 -4 -38 -4 -3 -8 1 -8 8 0 8 -5 6 -11 -4
-9 -17 -12 -17 -39 -3 -27 14 -44 5 -20 -10 6 -3 10 -15 10 -26 0 -25 -29 -71
-41 -63 -5 3 -9 0 -9 -5 0 -6 -5 -11 -10 -11 -7 0 -7 6 0 19 5 11 10 32 10 46
0 20 -4 26 -17 23 -10 -2 -18 -10 -19 -18 -2 -29 -4 -31 -24 -20 -11 6 -19 16
-17 22 1 7 -17 16 -41 21 -38 9 -45 7 -67 -13 -19 -18 -28 -20 -38 -12 -25 21
-130 -18 -120 -45 3 -8 -2 -13 -15 -13 -35 0 -107 -38 -130 -69 l-23 -31 670
0 c629 0 670 1 674 18 4 16 5 16 6 0 1 -17 18 -18 210 -18 l210 0 78 80 c43
44 82 80 88 80 5 0 -15 -26 -46 -58 -30 -31 -63 -67 -73 -79 l-19 -23 227 0
c218 0 226 1 217 19 -7 13 -18 17 -36 14 -18 -4 -25 -1 -25 11 0 9 5 16 11 16
17 0 53 -22 67 -42 7 -10 20 -18 27 -18 22 0 -2 45 -30 58 -13 6 -26 20 -30
31 -3 12 -11 21 -17 21 -7 0 -7 -4 0 -13 9 -10 -1 -13 -49 -15 -40 -2 -58 1
-54 8 3 5 14 10 23 10 11 0 18 9 18 26 2 27 2 27 -83 7 -18 -4 -23 -1 -23 16
0 12 -6 21 -14 21 -15 0 -26 21 -26 51 0 10 -4 19 -10 19 -5 0 -10 -7 -10 -15
0 -26 -16 -16 -46 27 -48 73 -70 91 -99 84 -21 -6 -29 -1 -46 29 -23 38 -38
45 -40 18 -1 -12 -4 -9 -8 7 -4 14 -4 27 -1 30 18 13 5 42 -21 47 -19 3 -33
15 -41 34 -7 16 -17 29 -23 29 -6 0 -22 11 -37 25 -15 14 -32 25 -37 25 -5 0
-13 5 -17 12 -5 8 -2 9 9 5 11 -4 17 -1 17 8 0 19 -11 19 -36 0 -10 -8 -27
-15 -38 -15 -13 0 -17 -5 -13 -20 3 -11 2 -20 -1 -20 -7 1 -72 92 -72 102 0 3
14 11 30 18 27 11 29 15 17 29 -22 25 -27 50 -13 58 11 7 11 15 0 48 -13 39
-14 39 -9 6 7 -50 0 -36 -41 75 -47 127 -54 154 -45 154 4 0 8 6 9 13 0 6 4
30 7 52 8 42 8 86 1 92 -2 2 -7 -24 -11 -59 -10 -84 -24 -109 -25 -41 0 60 18
152 33 171 9 11 12 11 18 -5 7 -16 8 -16 8 4 1 12 6 25 11 28 6 4 10 14 8 24
-1 9 10 43 26 76 40 82 37 76 77 136 51 76 69 149 74 301 0 32 4 60 7 63 3 3
18 3 33 -1 19 -5 23 -10 16 -17 -19 -19 -12 -31 7 -13 17 15 22 15 55 1 54
-22 57 -20 42 35 -7 27 -10 49 -7 48 24 -3 32 5 32 30 -1 24 -2 25 -14 10 -7
-10 -19 -18 -25 -18 -8 0 -7 6 4 16 16 16 13 46 -7 72 -7 8 -7 17 1 26 10 11
8 17 -6 25 -17 10 -17 11 4 17 14 4 20 11 16 21 -3 8 -12 12 -19 9 -11 -4 -14
6 -14 40 0 25 3 43 8 40 4 -2 6 13 4 35 -4 39 4 49 25 28 8 -8 21 -8 47 1 33
11 36 15 36 49 0 31 -5 40 -25 49 -14 6 -25 20 -25 29 0 14 -2 15 -9 4 -19
-30 -36 -3 -46 73 -6 43 -7 80 -3 82 14 9 9 24 -6 18 -11 -4 -17 15 -27 83 -8
48 -13 94 -12 100 0 7 -3 11 -7 8 -9 -6 -32 19 -28 31 5 21 -15 114 -25 114
-8 0 -7 4 1 12 9 9 15 8 28 -8 15 -18 15 -18 9 9 -4 20 1 37 15 58 21 28 50
40 50 19 0 -5 4 -10 10 -10 5 0 8 14 7 30 -2 24 -6 30 -22 29 -11 -1 -29 2
-39 6 -18 8 -18 9 -2 15 29 10 19 25 -21 30 l-38 5 72 29 c39 16 81 26 92 23
24 -6 27 10 7 38 -11 15 -22 17 -65 12 -28 -3 -72 -15 -97 -27 -26 -11 -61
-20 -78 -19 -17 0 -24 3 -16 6 8 3 17 9 20 12 3 4 18 12 34 19 38 17 28 25
-12 11 -51 -18 -60 -5 -16 25 24 15 48 24 57 20 24 -9 32 35 13 71 -10 19 -12
31 -5 34 6 2 1 10 -11 18 -12 8 -19 21 -16 28 3 8 1 15 -5 17 -5 2 -11 27 -13
56 -2 38 -9 58 -25 73 l-22 20 3 -43 c2 -24 6 -45 9 -48 5 -5 39 -86 39 -95 0
-3 -7 -5 -16 -5 -8 0 -13 4 -10 8 7 12 -19 83 -34 92 -9 5 -9 9 -1 14 6 4 8
12 5 18 -4 6 -15 -8 -24 -32 -10 -24 -21 -45 -26 -47 -5 -2 -29 15 -54 37 -43
39 -43 40 -12 25 48 -24 49 -13 1 18 -33 22 -44 25 -61 16 -33 -18 -38 3 -12
54 13 27 24 55 24 63 0 8 6 14 13 14 7 0 12 13 12 32 0 27 5 33 32 41 23 7 42
6 64 -3 36 -15 79 -58 79 -80 1 -12 3 -12 14 3 7 9 18 17 25 17 6 0 11 4 11 9
0 5 8 12 18 14 16 4 16 5 0 6 -10 0 -18 6 -18 12 0 12 49 -16 83 -47 22 -20
249 -198 337 -264 19 -14 48 -36 64 -50 17 -15 92 -73 166 -130 74 -57 176
-136 225 -175 277 -218 276 -218 292 -202 13 13 -3 29 -136 137 -83 67 -151
126 -151 131 0 6 -4 8 -9 4 -5 -3 -12 4 -16 15 -3 11 -10 20 -14 20 -4 0 -17
8 -29 18 -11 9 -29 24 -39 33 -29 23 -261 200 -305 232 -21 15 -55 39 -77 55
-100 71 -221 166 -221 174 0 4 -6 8 -12 8 -16 0 -129 107 -132 123 -2 15 -46
108 -59 125 -7 8 -13 9 -22 2 -9 -8 -14 -5 -18 9 -7 28 -67 26 -75 -1 -3 -14
-7 -16 -13 -7 -15 25 -39 -9 -35 -50 2 -20 2 -30 -1 -23 -2 7 -14 17 -25 23
-15 8 -19 8 -14 0 4 -6 0 -18 -8 -27 -15 -14 -16 -13 -16 10 0 16 -6 26 -15
26 -17 0 -20 27 -5 50 8 12 13 11 33 -8 13 -12 26 -22 29 -22 10 0 48 70 48
87 0 12 7 14 34 10 38 -6 38 -3 10 52 -7 14 -11 28 -8 33 3 4 -2 8 -10 8 -9 0
-16 4 -16 10 0 5 8 7 18 3 9 -3 14 -3 10 1 -3 4 -14 9 -25 11 -10 2 -20 4 -22
4 -2 1 3 9 10 19 7 9 10 14 6 11 -4 -3 -24 10 -45 30 -21 20 -49 43 -62 53
l-25 16 22 22 c25 26 63 23 128 -10 32 -16 41 -18 54 -7 33 27 70 39 96 33 24
-6 25 -5 16 13 -15 28 -14 30 12 24 21 -6 21 -5 -4 23 -15 16 -31 38 -37 49
-10 17 -11 14 -12 -21 0 -26 -8 -51 -21 -68 -26 -33 -45 -34 -23 -1 14 21 14
25 2 25 -8 0 -23 -9 -33 -20 -23 -25 -26 -25 -60 4 -40 34 -28 53 39 61 31 4
64 4 73 1 15 -6 16 -5 5 6 -12 12 -111 17 -141 8 -9 -3 -20 9 -29 33 -14 36
-14 42 2 72 10 17 17 38 16 46 -6 43 29 62 61 33 18 -17 20 -17 34 2 22 29 19
32 -41 40 -31 3 -69 13 -83 20 -39 21 -87 17 -111 -8 -11 -12 -20 -25 -20 -28
0 -15 54 -30 89 -24 l36 6 -25 -18 c-14 -10 -31 -24 -38 -31 -17 -17 -22 -16
-67 3 -33 14 -41 14 -68 1 -17 -9 -36 -13 -43 -10 -6 2 -15 -1 -19 -6 -3 -6
-11 -9 -16 -5 -6 4 -6 11 2 20 13 16 39 19 39 3 0 -6 13 -1 29 10 16 12 39 25
52 30 22 9 22 10 4 12 -11 1 -23 1 -27 0 -4 0 -4 7 -1 17 5 13 -2 11 -28 -10
-26 -19 -39 -24 -52 -16 -24 13 -8 39 35 55 27 11 28 12 6 8 -16 -3 -28 -1
-28 3 0 10 -22 9 -62 -2 -23 -7 -26 -11 -18 -32 7 -17 6 -24 -2 -24 -6 0 -22
-10 -34 -21 l-23 -21 32 -42 c43 -55 46 -57 81 -39 30 14 30 14 14 -3 -9 -9
-27 -18 -40 -20 -13 -1 -26 -3 -30 -3 -17 -2 28 -41 47 -41 16 0 21 -7 23 -31
3 -41 9 -49 35 -49 25 -1 57 -22 57 -38 0 -6 6 -9 14 -6 8 3 39 -14 69 -39 31
-25 62 -49 70 -54 8 -4 17 -21 21 -37 l7 -29 -23 21 c-102 92 -158 126 -245
152 -29 9 -43 19 -43 30 0 11 -11 20 -29 23 -16 4 -52 17 -79 30 -50 24 -50
24 -40 3 5 -11 31 -38 56 -59 169 -137 138 -130 -53 13 -71 53 -159 117 -195
141 -36 25 -153 111 -260 191 -183 135 -230 166 -230 151 0 -4 8 -16 17 -27
10 -12 -1 -3 -24 18 -23 22 -39 44 -36 50 3 6 3 8 -2 4 -4 -4 -35 17 -69 47
-33 30 -65 55 -70 55 -5 0 -14 7 -20 16 -10 13 -28 20 -58 23 -5 1 -8 9 -9 19
0 11 -2 12 -6 4 -4 -10 -8 -10 -21 0 -15 12 -16 11 -3 -5z m1151 -381 c0 -2
-8 -10 -17 -17 -16 -13 -17 -12 -4 4 13 16 21 21 21 13z m230 -36 c0 -5 -4
-10 -10 -10 -5 0 -10 5 -10 10 0 6 5 10 10 10 6 0 10 -4 10 -10z m-286 -42
c-8 -29 -10 -31 -23 -23 -8 4 -8 12 -1 26 15 27 33 24 24 -3z m30 -33 c-4 -8
-8 -15 -10 -15 -2 0 -4 7 -4 15 0 8 4 15 10 15 5 0 7 -7 4 -15z m266 -85 c-24
-15 -37 -11 -16 5 11 8 22 12 25 9 3 -3 -1 -9 -9 -14z m-179 -267 c13 -16 12
-17 -3 -4 -10 7 -18 15 -18 17 0 8 8 3 21 -13z m-121 -48 c13 -14 18 -25 12
-25 -7 0 -12 5 -12 10 0 6 -9 10 -20 10 -11 0 -20 7 -20 15 0 22 13 18 40 -10z
m340 -47 c0 -18 -29 -6 -66 28 l-39 35 52 -28 c29 -15 53 -31 53 -35z m90 -50
c0 -4 -4 -10 -10 -13 -6 -3 -7 1 -4 10 5 12 2 16 -12 13 -15 -2 -20 4 -22 27
l-3 30 25 -30 c14 -16 25 -33 26 -37z m20 -167 c5 -17 5 -29 0 -26 -4 3 -10 0
-12 -6 -2 -6 -4 8 -5 31 -2 48 3 48 17 1z m-130 -51 c0 -5 -2 -10 -4 -10 -3 0
-8 5 -11 10 -3 6 -1 10 4 10 6 0 11 -4 11 -10z m-296 -46 c25 -10 19 -26 -6
-19 -31 10 -47 25 -26 25 9 0 23 -3 32 -6z m141 -225 c11 -16 1 -19 -13 -3 -7
8 -8 14 -3 14 5 0 13 -5 16 -11z m-16 -64 c0 -5 -4 -3 -9 5 -5 8 -9 22 -9 30
0 16 17 -16 18 -35z m36 27 c17 -12 16 -32 -1 -32 -10 0 -14 6 -11 14 3 8 1
17 -6 20 -7 2 -7 5 -2 5 6 0 15 -3 20 -7z m-171 -37 c3 -8 1 -15 -3 -15 -5 0
-11 7 -15 15 -3 8 -1 15 3 15 5 0 11 -7 15 -15z m61 -7 c6 -4 -2 -7 -17 -6
-21 2 -24 5 -16 15 6 8 14 10 17 6 3 -4 11 -11 16 -15z m-95 -3 c0 -9 -6 -12
-15 -9 -8 4 -12 10 -9 15 8 14 24 10 24 -6z m180 -15 c-24 -15 -36 -11 -14 4
10 8 21 12 24 10 2 -3 -2 -9 -10 -14z m392 -115 c5 -19 3 -33 -4 -40 -8 -7 -9
-6 -4 2 4 7 -4 22 -18 34 -26 23 -25 42 2 37 8 -2 19 -16 24 -33z m-103 -44
c1 -35 -5 -22 -12 24 -5 28 -4 34 3 20 5 -11 9 -31 9 -44z m-54 -61 c3 -6 -1
-7 -9 -4 -18 7 -21 14 -7 14 6 0 13 -4 16 -10z m25 -20 c-8 -5 -19 -10 -25
-10 -5 0 -3 5 5 10 8 5 20 10 25 10 6 0 3 -5 -5 -10z m80 -71 c19 -10 -47 -39
-87 -38 -15 0 -22 3 -14 6 9 4 3 10 -18 19 -51 21 -29 36 42 28 34 -4 69 -10
77 -15z m85 -69 c-3 -5 -15 -10 -26 -10 -10 0 -19 5 -19 10 0 6 12 10 26 10
14 0 23 -4 19 -10z m33 -40 c-13 -38 -28 -48 -28 -19 0 17 22 46 37 49 1 0 -3
-14 -9 -30z m-47 -157 c0 -16 2 -39 3 -52 l3 -24 -18 22 c-11 13 -16 27 -13
32 3 5 0 9 -6 9 -8 0 -9 -7 -5 -17 16 -37 11 -58 -14 -61 -13 -2 -27 2 -32 9
-9 15 9 42 22 33 5 -3 9 4 9 16 0 11 7 23 15 26 8 4 15 12 15 20 0 27 20 14
21 -13z m-494 -25 c-3 -8 -6 -5 -6 6 -1 11 2 17 5 13 3 -3 4 -12 1 -19z m518
-105 c3 -21 12 -62 20 -92 8 -30 14 -56 12 -57 -1 -1 -26 -4 -54 -6 -39 -4
-53 -2 -53 8 0 7 8 11 20 9 26 -5 26 9 -1 27 -20 13 -20 15 -5 30 17 18 22 43
6 33 -6 -3 -17 0 -25 7 -8 7 -21 19 -30 26 -26 22 -6 34 44 29 25 -3 37 -3 26
0 l-20 6 20 8 c32 12 34 11 40 -28z m-85 -58 c10 -12 10 -15 -2 -15 -8 0 -15
7 -15 15 0 8 1 15 2 15 2 0 8 -7 15 -15z m117 -128 c7 2 14 -6 17 -19 2 -13 8
-44 14 -70 13 -66 4 -64 -69 16 -24 27 -37 46 -29 41 12 -6 13 -5 3 6 -20 20
-15 31 8 24 15 -5 19 -4 14 5 -5 9 -3 9 11 2 11 -5 24 -7 31 -5z m-19 -522
c-9 -9 -30 14 -23 25 6 9 10 8 17 -4 6 -10 8 -19 6 -21z m-338 -445 c0 -5 -2
-10 -4 -10 -3 0 -8 5 -11 10 -3 6 -1 10 4 10 6 0 11 -4 11 -10z m-290 -164 c0
-3 -4 -8 -10 -11 -5 -3 -10 -1 -10 4 0 6 5 11 10 11 6 0 10 -2 10 -4z m-23
-55 c0 -10 -9 -24 -19 -30 -21 -13 -22 -10 -6 24 13 29 27 33 25 6z m219 -228
c19 -21 35 -69 50 -153 1 -8 8 -35 14 -59 6 -24 8 -46 6 -49 -3 -2 -1 -13 5
-24 6 -11 8 -26 5 -35 -10 -24 -38 4 -30 30 5 17 4 18 -8 6 -8 -7 -12 -23 -10
-36 2 -13 -3 -35 -13 -49 -14 -21 -16 -45 -13 -127 3 -94 2 -101 -17 -103 -11
-2 -31 -6 -45 -9 -23 -6 -26 -2 -38 38 -8 25 -24 65 -36 90 l-23 45 37 18 c40
20 44 39 7 29 -12 -4 -30 -9 -39 -11 -13 -4 -18 0 -18 14 0 35 95 57 103 25 3
-11 5 -7 6 10 0 15 -5 28 -11 28 -7 1 -24 3 -37 4 -27 3 -44 25 -30 41 9 11 5
120 -7 193 -5 31 -4 32 10 18 12 -11 16 -39 18 -104 l1 -88 7 110 c5 92 11
121 35 177 l30 67 9 -35 c4 -20 19 -47 32 -61z m21 -440 c-3 -10 -5 -4 -5 12
0 17 2 24 5 18 2 -7 2 -21 0 -30z m33 -168 c7 -9 10 -18 7 -22 -8 -7 -37 15
-37 28 0 14 16 11 30 -6z m75 -55 c3 -5 -1 -10 -9 -10 -9 0 -16 5 -16 10 0 6
4 10 9 10 6 0 13 -4 16 -10z m-594 -233 c-10 -9 -11 -8 -5 6 3 10 9 15 12 12
3 -3 0 -11 -7 -18z m216 -73 c-3 -3 -12 -4 -19 -1 -8 3 -5 6 6 6 11 1 17 -2
13 -5z m-334 -94 c20 -48 22 -63 5 -58 -7 3 -15 18 -16 34 -2 16 -10 33 -18
37 -8 5 -12 12 -9 18 11 17 20 9 38 -31z m1502 -50 c-3 -5 -12 -7 -20 -3 -21
7 -19 13 6 13 11 0 18 -4 14 -10z"/>
<path d="M3108 2665 c-9 -9 9 -45 22 -45 6 0 10 5 10 11 0 5 -4 8 -9 4 -5 -3
-11 4 -13 16 -2 11 -6 18 -10 14z"/>
<path d="M3143 2533 c-17 -6 -17 -20 0 -20 8 0 14 6 14 14 0 7 -1 13 -1 12 -1
0 -7 -3 -13 -6z"/>
<path d="M2630 1156 c0 -22 17 -28 24 -10 9 22 8 24 -9 24 -8 0 -15 -6 -15
-14z"/>
<path d="M2615 691 c13 -39 60 -128 52 -101 -15 52 -51 140 -58 140 -4 0 -2
-17 6 -39z"/>
<path d="M2725 4830 c-45 -9 -115 -37 -115 -46 0 -5 18 -1 60 14 8 3 -10 -18
-40 -46 -30 -29 -49 -53 -42 -53 6 -1 18 -2 25 -3 6 -1 22 6 33 16 43 38 197
25 257 -23 19 -15 31 -17 49 -10 12 6 18 10 12 10 -15 1 -49 32 -57 51 -3 9
-6 10 -6 3 -1 -18 -28 -16 -35 2 -3 8 0 15 6 15 26 0 -16 29 -52 35 -31 5 -51
0 -106 -27 -93 -44 -95 -44 -51 -5 21 19 53 38 71 41 18 3 41 13 52 21 19 14
19 14 -1 14 -11 -1 -38 -5 -60 -9z m25 -74 c0 -2 -11 -6 -25 -8 -13 -3 -22 -1
-19 3 5 9 44 13 44 5z"/>
<path d="M2815 4820 c3 -5 16 -10 28 -9 21 0 21 1 2 9 -28 12 -37 12 -30 0z"/>
<path d="M2935 4764 c17 -10 35 -24 42 -33 7 -9 13 -11 13 -5 0 16 -31 41 -60
48 -22 6 -21 5 5 -10z"/>
<path d="M2700 4678 c0 -19 2 -20 10 -8 13 19 13 30 0 30 -5 0 -10 -10 -10
-22z"/>
<path d="M2980 4681 c0 -5 10 -17 21 -25 17 -11 22 -27 24 -65 4 -61 25 -113
43 -106 7 3 11 1 8 -3 -2 -4 -1 -14 5 -22 7 -12 9 -10 9 7 0 12 -7 26 -16 31
-15 9 -19 26 -23 105 -1 10 -5 16 -10 13 -5 -3 -11 8 -14 24 -6 27 -47 63 -47
41z"/>
<path d="M2945 4535 c38 -24 53 -20 42 9 -3 7 -22 13 -44 14 l-38 1 40 -24z"/>
<path d="M2450 4454 c0 -7 9 -22 20 -35 10 -13 19 -19 20 -13 0 7 -9 22 -20
35 -10 13 -19 19 -20 13z"/>
<path d="M2880 3715 c0 -15 6 -25 14 -25 19 0 27 37 9 44 -22 9 -23 8 -23 -19z"/>
<path d="M2936 3708 c-7 -28 18 -58 35 -41 13 13 3 36 -12 28 -5 -4 -9 -1 -9
4 0 14 16 14 41 1 24 -13 25 -2 2 16 -27 20 -50 17 -57 -8z"/>
<path d="M2880 3670 c0 -5 7 -10 16 -10 8 0 22 -7 30 -15 9 -8 25 -15 36 -15
14 0 6 8 -26 25 -53 28 -56 29 -56 15z"/>
<path d="M3006 3665 c-9 -26 -7 -32 5 -12 6 10 9 21 6 23 -2 3 -7 -2 -11 -11z"/>
<path d="M2866 3641 c-7 -10 66 -91 81 -91 6 0 8 11 6 24 -5 26 -78 82 -87 67z"/>
<path d="M3143 3266 c-39 -14 -58 -31 -23 -21 29 9 80 35 65 33 -5 0 -24 -6
-42 -12z"/>
<path d="M2445 3170 c-3 -5 -2 -10 4 -10 5 0 13 5 16 10 3 6 2 10 -4 10 -5 0
-13 -4 -16 -10z"/>
<path d="M3200 3110 c0 -5 7 -10 16 -10 12 0 15 -7 10 -27 -3 -16 -3 -22 0
-15 8 18 24 4 24 -21 0 -12 11 -42 24 -67 20 -38 37 -95 41 -135 0 -5 6 -19
12 -30 5 -11 13 -33 17 -50 l7 -29 30 33 c37 42 36 56 -1 88 -16 13 -30 32
-30 42 0 9 -5 22 -11 28 -8 8 -6 19 5 42 25 48 10 88 -48 128 -46 32 -96 44
-96 23z"/>
<path d="M3211 2994 c-1 -18 6 -59 23 -151 4 -17 0 -23 -12 -23 -15 -1 -14 -3
3 -16 11 -8 19 -16 17 -17 -2 -1 -1 -9 2 -17 3 -8 12 -42 20 -75 7 -33 17 -69
22 -79 7 -17 4 -18 -24 -13 -18 4 -32 2 -32 -3 0 -5 10 -10 22 -12 18 -2 26
-16 40 -62 10 -33 20 -70 23 -84 5 -32 13 -38 27 -24 8 8 8 12 1 12 -5 0 -13
32 -16 72 -3 39 -11 74 -18 78 -8 6 -8 13 0 28 6 12 7 23 2 26 -8 5 -22 56
-27 101 -1 11 -11 56 -23 100 -11 44 -21 89 -21 100 -1 11 -7 34 -15 50 -11
25 -14 26 -14 9z"/>
<path d="M3140 2986 c0 -2 7 -9 15 -16 9 -7 15 -8 15 -2 0 5 -7 12 -15 16 -8
3 -15 4 -15 2z"/>
<path d="M3250 2970 c0 -6 7 -27 16 -48 8 -20 14 -39 14 -42 -1 -2 4 -6 12 -8
8 -2 9 0 3 5 -5 4 -10 13 -10 18 -2 40 -35 112 -35 75z"/>
<path d="M3144 2875 c8 -32 23 -55 37 -55 5 0 -1 17 -12 38 -28 49 -33 53 -25
17z"/>
<path d="M3198 2883 c6 -2 9 -10 6 -15 -4 -7 -2 -8 4 -4 18 11 14 26 -5 25
-11 0 -13 -3 -5 -6z"/>
<path d="M2562 2710 c0 -14 2 -19 5 -12 2 6 2 18 0 25 -3 6 -5 1 -5 -13z"/>
<path d="M1725 2430 c7 -34 6 -34 -10 -15 -9 11 -14 15 -10 8 7 -14 -23 -65
-35 -58 -22 13 -111 -127 -141 -224 -28 -90 -48 -198 -41 -223 4 -15 2 -19 -7
-14 -10 6 -12 -28 -9 -156 2 -133 1 -162 -9 -149 -7 9 -3 -6 8 -33 12 -27 19
-60 16 -74 -6 -34 2 -59 14 -41 4 8 6 -6 4 -32 -3 -37 1 -50 20 -71 13 -14 30
-28 37 -31 10 -4 10 -8 -2 -16 -13 -9 -11 -11 7 -11 16 0 20 -5 16 -19 -4 -15
9 -30 51 -63 36 -28 51 -45 43 -50 -9 -6 -9 -8 1 -9 6 -1 17 -2 22 -3 6 0 15
-8 20 -16 5 -8 10 -12 10 -9 0 4 15 -8 34 -27 32 -32 65 -47 50 -22 -5 8 -2 9
10 5 10 -4 21 -7 24 -7 4 0 0 -5 -8 -10 -13 -8 -12 -10 3 -10 11 0 15 -4 11
-12 -5 -8 11 -10 62 -6 52 5 61 4 37 -3 -18 -5 -33 -12 -33 -15 0 -4 7 -3 16
0 8 3 26 -1 39 -10 20 -13 30 -14 58 -5 40 13 72 45 62 60 -9 15 -35 14 -68
-4 -20 -10 -34 -12 -47 -5 -10 5 -40 7 -67 4 -29 -3 -43 -2 -36 3 18 12 -58
46 -82 36 -12 -4 -16 -3 -11 5 4 6 -5 17 -21 26 -85 44 -153 160 -194 331 -31
128 -34 349 -6 460 37 148 52 192 89 253 21 34 38 71 38 81 0 10 7 24 15 31 8
7 15 17 15 22 0 6 -7 4 -17 -3 -15 -13 -15 -12 -4 9 7 13 19 26 27 29 7 3 11
9 8 14 -3 6 2 21 11 36 9 14 12 22 6 19 -6 -4 -11 0 -11 11 0 10 -5 25 -11 33
-7 11 -8 6 -4 -20z m-168 -432 c-3 -8 -6 -5 -6 6 -1 11 2 17 5 13 3 -3 4 -12
1 -19z m38 -688 c3 -5 1 -10 -4 -10 -6 0 -11 5 -11 10 0 6 2 10 4 10 3 0 8 -4
11 -10z m36 -77 c13 -16 12 -17 -3 -4 -17 13 -22 21 -14 21 2 0 10 -8 17 -17z"/>
<path d="M3360 2444 c0 -8 5 -12 10 -9 6 4 8 11 5 16 -9 14 -15 11 -15 -7z"/>
<path d="M3323 2345 c0 -27 2 -38 4 -22 2 15 2 37 0 50 -2 12 -4 0 -4 -28z"/>
<path d="M3243 2230 c0 -30 2 -43 4 -27 2 15 2 39 0 55 -2 15 -4 2 -4 -28z"/>
<path d="M2355 1289 c-4 -6 -5 -12 -2 -15 2 -3 7 2 10 11 7 17 1 20 -8 4z"/>
<path d="M1735 1086 c9 -13 24 -27 33 -31 10 -4 5 6 -12 24 -36 37 -42 39 -21
7z"/>
<path d="M2855 1020 c-3 -5 1 -10 9 -10 9 0 16 5 16 10 0 6 -4 10 -9 10 -6 0
-13 -4 -16 -10z"/>
<path d="M3378 347 c-34 -13 -37 -27 -5 -20 29 8 67 33 47 32 -8 -1 -27 -6
-42 -12z"/>
<path d="M2206 327 c3 -10 9 -15 12 -12 3 3 0 11 -7 18 -10 9 -11 8 -5 -6z"/>
</g>
</svg>
